<svg width="1202" height="587" viewBox="0 0 1202 587" fill="none" xmlns="http://www.w3.org/2000/svg">
<path d="M865.417 317.939C928.658 281.61 991.73 244.986 1055.19 209.038C1115.42 174.903 1186.28 206.38 1199.94 272.801C1207.84 311.223 1190.69 352.731 1156 372.948C1042.29 439.222 928.418 505.234 813.975 570.236C778.553 590.354 742.066 586.653 709.786 561.999C676.994 536.969 666.659 502.444 674.35 462.261C683.131 431.671 703.227 411.22 730.633 395.92C775.943 370.628 820.525 344.001 865.417 317.939Z" fill="#DBCE41"/>
<path d="M911.844 291.523C848.763 254.913 785.521 218.589 722.66 181.608C662.988 146.501 654.818 69.3833 705.499 24.3393C734.817 -1.70944 779.333 -7.61231 814.182 12.3222C928.428 77.6764 1042.52 143.308 1156.03 209.93C1191.16 230.55 1206.19 264.009 1201 304.296C1195.71 345.208 1170.99 371.421 1132.35 384.856C1101.47 392.548 1073.71 385.363 1046.76 369.275C1002.21 342.672 956.858 317.37 911.844 291.523Z" fill="#3ACBBC"/>
<path d="M336.897 265.62C296.419 288.621 255.917 311.58 215.476 334.651C191.826 348.147 168.429 362.104 144.657 375.375C96.7507 402.119 39.8341 386.443 12.6718 339.338C-13.2511 294.388 1.64716 236.11 47.7833 209.174C160.588 143.322 273.684 77.949 387.189 13.3039C422 -6.51793 458.116 -4.02435 490.307 19.6764C524.282 44.692 535.406 79.8932 527.776 121.157C523.043 131.145 520.216 142.852 513.126 150.718C501.604 163.515 488.504 175.767 473.92 184.764C428.789 212.597 382.644 238.792 336.897 265.62Z" fill="#856EB2"/>
<path d="M290.485 291.42C330.644 314.975 370.775 338.582 410.971 362.071C434.481 375.812 458.263 389.097 481.641 403.049C528.753 431.178 543.642 488.309 516.433 535.387C490.468 580.318 432.56 596.557 386.166 570.057C272.741 505.276 159.589 440.011 46.8639 374.018C12.2924 353.778 -3.60597 321.249 0.821713 281.516C5.49355 239.576 30.4116 212.344 69.9602 198.317C80.9707 197.429 92.5212 194.02 102.879 196.227C119.721 199.815 136.882 205.032 151.964 213.166C198.631 238.336 244.382 265.207 290.485 291.42Z" fill="#F89993"/>
</svg>
