<svg width="140" height="140" viewBox="0 0 140 140" fill="none" xmlns="http://www.w3.org/2000/svg">
<rect width="140" height="140" fill="#F3F3F3" fill-opacity="0.17"/>
<g id="Wireframe - 1">
<rect width="1440" height="1024" transform="translate(-303 -808)" fill="#6F8566"/>
<rect id="Rectangle 14" x="-74" y="-29" width="1038" height="197" fill="#F3F3F3"/>
<g id="twemoji:letter-b" clip-path="url(#clip0_0_1)">
<path id="Vector" d="M140 124.444C140 128.57 138.361 132.527 135.444 135.444C132.527 138.361 128.57 140 124.444 140H15.5556C11.43 140 7.47335 138.361 4.55612 135.444C1.63888 132.527 0 128.57 0 124.444V15.5556C0 11.43 1.63888 7.47335 4.55612 4.55612C7.47335 1.63888 11.43 0 15.5556 0L124.444 0C128.57 0 132.527 1.63888 135.444 4.55612C138.361 7.47335 140 11.43 140 15.5556V124.444Z" fill="#7A40F4"/>
<path id="Vector_2" d="M40.8256 35.9684C40.8256 30.1818 44.8039 26.9268 50.3494 26.9268H73.5C86.0378 26.9268 96.1722 35.3656 96.1722 48.1484C96.1722 56.5873 92.6722 62.2573 84.9528 65.874V66.1151C95.2078 67.5618 103.281 76.1212 103.281 86.6134C103.281 103.616 91.9489 112.782 75.3083 112.782H50.4739C44.9244 112.782 40.8256 109.286 40.8256 103.62V35.9684ZM58.9128 60.9273H68.32C74.2272 60.9273 78.085 57.4312 78.085 51.3995C78.085 45.7334 73.6245 42.8401 68.32 42.8401H58.9128V60.9273ZM58.9128 96.8606H73.1422C79.6522 96.8606 84.4783 93.1234 84.4783 86.3723C84.4783 80.7023 80.1345 76.8445 71.6956 76.8445H58.9128V96.8606Z" fill="white"/>
</g>
</g>
<defs>
<clipPath id="clip0_0_1">
<rect width="140" height="140" fill="white"/>
</clipPath>
</defs>
</svg>
