<svg width="78" height="106" viewBox="0 0 78 106" fill="none" xmlns="http://www.w3.org/2000/svg">
<g clip-path="url(#clip0_85_47)">
<path fill-rule="evenodd" clip-rule="evenodd" d="M31.1136 96.484H46.8662L44.7228 106H33.2288L31.1136 96.484ZM26.7375 38.249C27.558 52.5611 31.2011 70.4459 37.4481 91.2041C38.5282 91.7451 39.554 91.7244 40.5314 91.2041C46.7765 70.4529 50.4196 52.5725 51.2411 38.2627C53.9443 -13.25 24.0973 -11.8008 26.7375 38.249ZM33.2568 0C33.2568 0 14.8682 6.95956 16.192 33.7277C17.5155 60.4956 35.8055 91.1896 35.8055 91.1896C24.5457 81.1997 7.86831 50.0784 7.54699 31.7648C7.43126 15.5273 18.4865 1.9109 33.2568 0ZM4.02063 34.1146C6.70852 61.2949 34.4315 92.239 32.2183 90.2093C26.0448 84.8853 5.25826 59.818 1.35221 36.3286C-2.55385 12.8395 17.1984 4.70375 17.1984 4.70375C5.73299 12.4772 2.73393 23.8529 4.02084 34.1148M46.3478 89.9118C47.8562 86.7691 60.8958 58.9435 62.1428 33.7279C63.4661 6.95956 45.0778 0 45.0778 0C46.792 0.072875 50.6076 1.18588 54.2096 2.90258C57.8115 4.61907 70.5396 12.4399 70.7874 31.7648C70.5762 43.7954 64.8926 60.9293 57.8256 74.1027C64.9839 63.1247 73.0161 48.1203 74.4009 34.1146C75.6878 23.8529 72.6888 12.4772 61.2234 4.70375C61.2234 4.70375 80.9754 12.8395 77.0695 36.3286C73.1631 59.818 52.3392 84.9101 46.1662 90.2342L46.3478 89.9118Z" fill="black"/>
</g>
<defs>
<clipPath id="clip0_85_47">
<rect width="76.81" height="106" fill="white" transform="translate(0.840088)"/>
</clipPath>
</defs>
</svg>
