<svg width="106" height="106" viewBox="0 0 106 106" fill="none" xmlns="http://www.w3.org/2000/svg">
<g clip-path="url(#clip0_51_89)">
<path fill-rule="evenodd" clip-rule="evenodd" d="M33.2844 63.4764L0 30.8684V19.8704L39.6241 59.1532C45.2218 63.7259 39.3875 71.137 33.2844 63.4764ZM81.8513 55.5935C90.8776 40.222 99.1185 19.7943 103.967 0H91.6271C89.163 23.1026 83.4179 36.7367 78.9091 56.7195C77.4948 56.9225 76.0587 56.9225 74.6443 56.7195C70.1351 36.7369 64.3902 23.1026 61.9264 0H49.5861C54.4345 19.7943 62.6754 40.222 71.702 55.5933C60.0432 45.8632 42.7706 13.3802 39.6523 0H35.1048C38.6799 14.5427 56.6814 41.2116 67.1065 54.5792C51.2164 38.3447 36.834 17.2022 31.5143 0H0V11.2855L48.6929 59.419L65.3171 90.8702C71.8398 104.202 55.8984 94.8166 28.1925 79.3017L0 51.4936V106H106V30.6974C99.64 40.1572 94.0278 46.3048 86.4467 54.5794C91.9351 47.542 99.5224 36.8182 106 26.118V19.828C98.8707 34.0424 89.0725 49.8848 81.851 55.5935M87.444 63.6714L66.815 63.6838L69.6575 76.1295L84.6791 76.18L87.444 63.6714Z" fill="white"/>
</g>
<defs>
<clipPath id="clip0_51_89">
<rect width="106" height="106" fill="white"/>
</clipPath>
</defs>
</svg>
