<svg width="140" height="140" viewBox="0 0 140 140" fill="none" xmlns="http://www.w3.org/2000/svg">
<path fill-rule="evenodd" clip-rule="evenodd" d="M43.9605 83.8368L0 40.7695V26.244L52.3337 78.1268C59.727 84.1663 52.0212 93.9545 43.9605 83.8368ZM108.105 73.4254C120.027 53.1234 130.911 26.1434 137.315 0H121.017C117.762 30.5129 110.175 48.5201 104.22 74.9126C102.352 75.1808 100.455 75.1808 98.5868 74.9126C92.6313 48.5204 85.0437 30.5129 81.7895 0H65.491C71.8946 26.1434 82.7788 53.1234 94.7007 73.4251C79.3023 60.5741 56.4895 17.672 52.3709 0H46.3649C51.0866 19.2073 74.8623 54.4305 88.6312 72.0858C67.6443 50.6439 48.6486 22.7199 41.6227 0H0V14.9054L64.3114 78.4779L86.2679 120.017C94.8828 137.625 73.8281 125.229 37.2354 104.738L0 68.0105V140H140V40.5437C131.6 53.0379 124.188 61.1573 114.175 72.0861C121.424 62.7914 131.445 48.6279 140 34.4955V26.1879C130.584 44.9616 117.643 65.8856 108.105 73.4254M115.492 84.0943L88.2462 84.1107L92.0005 100.548L111.84 100.615L115.492 84.0943Z" fill="#3FAE2A"/>
</svg>
