<svg width="140" height="140" viewBox="0 0 140 140" fill="none" xmlns="http://www.w3.org/2000/svg">
<g clip-path="url(#clip0_52_70)">
<path d="M107.188 0H32.8125C14.6907 0 0 14.6907 0 32.8125V107.188C0 125.309 14.6907 140 32.8125 140H107.188C125.309 140 140 125.309 140 107.188V32.8125C140 14.6907 125.309 0 107.188 0Z" fill="#0277BD"/>
<path d="M29.3962 56.1373L30.9613 73.6055H70.0525V56.1373H29.3962ZM70.052 20.7812H26.25L27.8381 38.2495H70.052V20.7812ZM70.052 119.679V101.504L69.9754 101.525L50.5209 96.2719L49.2773 82.3397H31.7417L34.189 109.768L69.9716 119.701L70.052 119.679Z" fill="#EBEBEB"/>
<path d="M91.5021 73.6055L89.4742 96.2604L69.9918 101.519V119.692L105.803 109.768L106.065 106.816L110.17 60.8284L110.596 56.1373L113.75 20.7812H69.9918V38.2495H94.6061L93.0169 56.1373H69.9918V73.6055H91.5021Z" fill="white"/>
</g>
<defs>
<clipPath id="clip0_52_70">
<rect width="140" height="140" fill="white"/>
</clipPath>
</defs>
</svg>
