<svg width="106" height="106" viewBox="0 0 106 106" fill="none" xmlns="http://www.w3.org/2000/svg">
<path d="M81.1562 0H24.8438C11.1229 0 0 11.1229 0 24.8438V81.1562C0 94.8771 11.1229 106 24.8438 106H81.1562C94.8771 106 106 94.8771 106 81.1562V24.8438C106 11.1229 94.8771 0 81.1562 0Z" fill="#F4F2ED"/>
<mask id="mask0_80_3" style="mask-type:luminance" maskUnits="userSpaceOnUse" x="25" y="11" width="56" height="84">
<path d="M25.2578 11.5938H80.4772V94.4062H25.2578V11.5938Z" fill="white"/>
</mask>
<g mask="url(#mask0_80_3)">
<path d="M39.0655 94.4062C46.6843 94.4062 52.8675 88.2231 52.8675 80.6043V66.8019H39.0655C31.4468 66.8019 25.2632 72.9856 25.2632 80.6043C25.2632 88.2231 31.4468 94.4062 39.0655 94.4062Z" fill="#0ACF83"/>
<path d="M25.2632 53C25.2632 45.3813 31.4468 39.1981 39.0655 39.1981H52.8675V66.8019H39.0655C31.4468 66.8019 25.2632 60.6188 25.2632 53Z" fill="#A259FF"/>
<path d="M25.2632 25.3957C25.2632 17.7769 31.4468 11.5938 39.0655 11.5938H52.8675V39.1981H39.0655C31.4468 39.1981 25.2632 33.0144 25.2632 25.3957Z" fill="#F24E1E"/>
<path d="M52.8675 11.5938H66.6694C74.2882 11.5938 80.4718 17.7769 80.4718 25.3957C80.4718 33.0144 74.2882 39.1981 66.6694 39.1981H52.8675V11.5938Z" fill="#FF7262"/>
<path d="M80.4718 53C80.4718 60.6188 74.2882 66.8019 66.6694 66.8019C59.0507 66.8019 52.8675 60.6188 52.8675 53C52.8675 45.3813 59.0507 39.1981 66.6694 39.1981C74.2882 39.1981 80.4718 45.3813 80.4718 53Z" fill="#1ABCFE"/>
</g>
</svg>
