<svg width="140" height="140" viewBox="0 0 140 140" fill="none" xmlns="http://www.w3.org/2000/svg">
<path d="M70 11.6667C62.3396 11.6667 54.7541 13.1756 47.6768 16.1071C40.5995 19.0386 34.1689 23.3354 28.7521 28.7522C17.8125 39.6918 11.6667 54.5291 11.6667 70.0001C11.6667 95.7834 28.4084 117.658 51.5667 125.417C54.4834 125.883 55.4167 124.075 55.4167 122.5V112.642C39.2584 116.142 35.8167 104.825 35.8167 104.825C33.1334 98.0584 29.3417 96.2501 29.3417 96.2501C24.0334 92.6334 29.75 92.7501 29.75 92.7501C35.5834 93.1584 38.675 98.7584 38.675 98.7584C43.75 107.625 52.325 105 55.65 103.6C56.175 99.8084 57.6917 97.2418 59.325 95.7834C46.375 94.3251 32.7834 89.3084 32.7834 67.0834C32.7834 60.6084 35 55.4167 38.7917 51.2751C38.2084 49.8167 36.1667 43.7501 39.375 35.8751C39.375 35.8751 44.275 34.3001 55.4167 41.8251C60.025 40.5417 65.0417 39.9001 70 39.9001C74.9584 39.9001 79.975 40.5417 84.5834 41.8251C95.725 34.3001 100.625 35.8751 100.625 35.8751C103.833 43.7501 101.792 49.8167 101.208 51.2751C105 55.4167 107.217 60.6084 107.217 67.0834C107.217 89.3667 93.5667 94.2667 80.5584 95.7251C82.6584 97.5334 84.5834 101.092 84.5834 106.517V122.5C84.5834 124.075 85.5167 125.942 88.4917 125.417C111.65 117.6 128.333 95.7834 128.333 70.0001C128.333 62.3396 126.825 54.7542 123.893 47.6769C120.961 40.5996 116.665 34.1689 111.248 28.7522C105.831 23.3354 99.4006 19.0386 92.3232 16.1071C85.2459 13.1756 77.6605 11.6667 70 11.6667Z" fill="black"/>
</svg>
