<svg width="153" height="140" viewBox="0 0 153 140" fill="none" xmlns="http://www.w3.org/2000/svg">
<g clip-path="url(#clip0_52_75)">
<path d="M28.2189 119.004L17.4755 8.75H135.525L124.767 118.987L76.4283 131.25L28.2189 119.004Z" fill="#E44F26"/>
<path d="M76.5 121.879L115.563 111.969L124.752 17.7668H76.5V121.879Z" fill="#F1662A"/>
<path d="M76.5 58.6556H56.9447L55.5964 44.8088H76.5V31.2856H39.4453L39.7991 34.9169L43.4281 72.1788H76.5V58.6556ZM76.5 93.7738L76.4331 93.7913L59.976 89.7269L58.9241 78.9425H44.0879L46.1582 100.17L76.4331 107.861L76.5 107.844V93.7738Z" fill="#EBEBEB"/>
<path d="M76.4474 58.6556V72.1788H94.6448L92.9331 89.7181L76.4474 93.7869V107.857L106.746 100.17L106.966 97.8863L110.437 62.2869L110.801 58.6556H106.818H76.4474ZM76.4474 31.2856V44.8088H112.144L112.441 41.7725L113.115 34.9169L113.469 31.2856H76.4474Z" fill="white"/>
</g>
<defs>
<clipPath id="clip0_52_75">
<rect width="153" height="140" fill="white"/>
</clipPath>
</defs>
</svg>
