<svg width="140" height="140" viewBox="0 0 140 140" fill="none" xmlns="http://www.w3.org/2000/svg">
<path d="M8.75 8.75H131.25V131.25H8.75V8.75Z" fill="#F5DE19"/>
<path d="M91.0393 104.453C92.0831 106.573 93.7047 108.355 95.7172 109.594C97.7298 110.832 100.051 111.477 102.414 111.453C107.183 111.453 110.232 109.069 110.232 105.766C110.232 101.828 107.1 100.419 101.85 98.1225L98.9712 96.8888C90.6587 93.3494 85.1462 88.9175 85.1462 79.5463C85.1462 70.9144 91.7087 64.3388 102.003 64.3388C105.336 64.0981 108.665 64.8439 111.576 66.4832C114.488 68.1225 116.852 70.5827 118.374 73.5569L109.375 79.31C108.789 77.8353 107.768 76.5736 106.448 75.6922C105.129 74.8109 103.572 74.3515 101.986 74.375C101.293 74.3057 100.594 74.3814 99.9327 74.5972C99.2713 74.813 98.662 75.1642 98.1438 75.6285C97.6256 76.0928 97.2098 76.6599 96.9229 77.2938C96.636 77.9276 96.4843 78.6143 96.4774 79.31C96.4774 82.7619 98.6168 84.1619 103.556 86.31L106.435 87.5438C116.217 91.7394 121.747 96.0138 121.747 105.626C121.747 115.99 113.606 121.669 102.672 121.669C98.4125 121.94 94.1651 120.973 90.4426 118.884C86.7202 116.795 83.6819 113.673 81.6943 109.896L91.0393 104.453ZM50.3737 105.451C52.1806 108.658 53.8256 111.37 57.7806 111.37C61.5606 111.37 63.9493 109.891 63.9493 104.138V64.995H75.4599V104.291C75.4599 116.209 68.4599 121.634 58.2706 121.634C54.6689 121.831 51.0919 120.933 48.0098 119.059C44.9278 117.185 42.4849 114.422 41.0024 111.134L50.3737 105.451Z" fill="black"/>
</svg>
