<svg width="229" height="140" viewBox="0 0 229 140" fill="none" xmlns="http://www.w3.org/2000/svg">
<rect width="229" height="140" fill="#F3F3F3" fill-opacity="0.17"/>
<g id="Wireframe - 1">
<rect width="1440" height="1024" transform="translate(-949 -561)" fill="#6F8566"/>
<rect id="Rectangle 14" x="-720" y="-61" width="1038" height="229" fill="#CDC4BB"/>
<g id="logos:nodejs" clip-path="url(#clip0_0_1)">
<g id="Group">
<path id="Vector" d="M112.857 139.596C112.084 139.596 111.362 139.39 110.692 139.029L103.839 134.959C102.808 134.392 103.324 134.186 103.633 134.083C105.024 133.619 105.282 133.515 106.725 132.692C106.879 132.588 107.086 132.64 107.24 132.743L112.496 135.886C112.702 135.989 112.96 135.989 113.114 135.886L133.675 123.983C133.881 123.88 133.985 123.673 133.985 123.416V99.6604C133.985 99.4023 133.881 99.1967 133.675 99.0933L113.114 87.2415C112.908 87.138 112.651 87.138 112.496 87.2415L91.9355 99.0933C91.7295 99.1963 91.6261 99.454 91.6261 99.66V123.415C91.6261 123.622 91.7295 123.879 91.9355 123.983L97.5524 127.229C100.593 128.775 102.499 126.971 102.499 125.168V101.721C102.499 101.412 102.757 101.103 103.118 101.103H105.746C106.055 101.103 106.364 101.36 106.364 101.721V125.168C106.364 129.238 104.148 131.609 100.283 131.609C99.0982 131.609 98.1708 131.609 95.5425 130.32L90.132 127.229C88.7922 126.456 87.9678 125.013 87.9678 123.467V99.7117C87.9678 98.1659 88.7922 96.7227 90.132 95.95L110.692 84.0464C111.981 83.325 113.733 83.325 115.021 84.0464L135.582 95.95C136.921 96.7227 137.746 98.1659 137.746 99.7117V123.467C137.746 125.013 136.921 126.456 135.582 127.229L115.021 139.132C114.351 139.442 113.578 139.596 112.857 139.596ZM119.195 123.261C110.178 123.261 108.323 119.139 108.323 115.635C108.323 115.325 108.58 115.016 108.941 115.016H111.621C111.93 115.016 112.187 115.222 112.187 115.532C112.6 118.263 113.785 119.602 119.247 119.602C123.575 119.602 125.431 118.623 125.431 116.304C125.431 114.965 124.915 113.986 118.165 113.316C112.548 112.749 109.044 111.512 109.044 107.029C109.044 102.855 112.548 100.381 118.423 100.381C125.018 100.381 128.265 102.649 128.677 107.595C128.677 107.751 128.626 107.905 128.523 108.06C128.419 108.163 128.265 108.266 128.11 108.266H125.431C125.173 108.266 124.915 108.06 124.864 107.802C124.246 104.968 122.648 104.04 118.423 104.04C113.682 104.04 113.115 105.689 113.115 106.926C113.115 108.42 113.785 108.884 120.174 109.708C126.513 110.533 129.502 111.718 129.502 116.15C129.45 120.685 125.74 123.261 119.195 123.261Z" fill="#539E43"/>
<path id="Vector_2" d="M49.062 46.687C49.062 45.7596 48.5466 44.883 47.7222 44.4194L25.8733 31.8461C25.5121 31.6397 25.1001 31.5367 24.6882 31.485H24.4817C24.0698 31.485 23.6573 31.6397 23.2966 31.8461L1.44772 44.4194C0.622878 44.883 0.10791 45.7592 0.10791 46.687L0.15963 80.4908C0.15963 80.9544 0.417337 81.4181 0.829311 81.6246C1.24173 81.8823 1.7567 81.8823 2.11785 81.6246L15.1035 74.2041C15.9279 73.7404 16.4433 72.8643 16.4433 71.9369V56.1169C16.4433 55.1895 16.9583 54.3134 17.7831 53.8497L23.2966 50.6547C23.7091 50.397 24.1728 50.2936 24.6364 50.2936C25.1001 50.2936 25.5638 50.397 25.925 50.6547L31.4385 53.8497C32.2633 54.3134 32.7783 55.1891 32.7783 56.1169V71.9369C32.7783 72.8643 33.2937 73.7404 34.1181 74.2041L47.1038 81.6246C47.3044 81.7509 47.5366 81.8179 47.7737 81.8179C48.0107 81.8179 48.243 81.7509 48.4436 81.6246C48.856 81.4181 49.1137 80.9544 49.1137 80.4908L49.062 46.687ZM154.081 0.154825C153.669 -0.0516083 153.154 -0.0516083 152.793 0.154825C152.381 0.412532 152.123 0.824506 152.123 1.2882V34.7834C152.123 35.0924 151.969 35.4014 151.659 35.6078C151.35 35.7621 151.041 35.7621 150.732 35.6078L145.27 32.4645C144.869 32.2365 144.416 32.1166 143.955 32.1166C143.495 32.1166 143.042 32.2365 142.641 32.4645L120.792 45.0895C119.968 45.5532 119.453 46.4293 119.453 47.3567V72.5549C119.453 73.4823 119.968 74.3588 120.792 74.8225L142.641 87.4475C143.042 87.6755 143.495 87.7954 143.955 87.7954C144.416 87.7954 144.869 87.6755 145.27 87.4475L167.119 74.8225C167.943 74.3588 168.458 73.4827 168.458 72.5549V9.73948C168.458 8.76037 167.943 7.8847 167.119 7.42056L154.081 0.154825ZM152.072 64.2588C152.072 64.5165 151.969 64.7225 151.762 64.8255L144.291 69.1539C144.186 69.2048 144.072 69.2312 143.955 69.2312C143.839 69.2312 143.725 69.2048 143.62 69.1539L136.149 64.8255C135.942 64.7225 135.839 64.4648 135.839 64.2588V55.6015C135.839 55.3438 135.942 55.1378 136.149 55.0348L143.62 50.706C143.725 50.6551 143.839 50.6286 143.955 50.6286C144.072 50.6286 144.186 50.6551 144.291 50.706L151.762 55.0348C151.969 55.1374 152.072 55.3955 152.072 55.6015V64.2588ZM226.791 55.3955C227.616 54.9318 228.079 54.0557 228.079 53.1279V46.996C228.079 46.0686 227.564 45.1925 226.791 44.7288L205.096 32.1555C204.696 31.9275 204.243 31.8076 203.782 31.8076C203.321 31.8076 202.869 31.9275 202.468 32.1555L180.619 44.7801C179.794 45.2437 179.279 46.1199 179.279 47.0472V72.2459C179.279 73.1733 179.795 74.0494 180.619 74.5131L202.313 86.8804C203.138 87.3441 204.117 87.3441 204.89 86.8804L218.03 79.5638C218.443 79.3574 218.701 78.8937 218.701 78.43C218.701 77.9663 218.443 77.5026 218.03 77.2962L196.078 64.6712C195.666 64.4135 195.408 64.0015 195.408 63.5378V55.6537C195.408 55.19 195.666 54.7263 196.078 54.5199L202.932 50.6034C203.132 50.4772 203.365 50.4102 203.602 50.4102C203.839 50.4102 204.071 50.4772 204.272 50.6034L211.125 54.5199C211.538 54.7776 211.795 55.1895 211.795 55.6537V61.8373C211.795 62.301 212.053 62.7647 212.465 62.9707C212.666 63.097 212.898 63.164 213.135 63.164C213.372 63.164 213.604 63.097 213.805 62.9707L226.791 55.3955Z" fill="#333333"/>
<path id="Vector_3" d="M203.447 54.2099C203.524 54.1595 203.613 54.1326 203.705 54.1326C203.797 54.1326 203.886 54.1595 203.963 54.2099L208.137 56.6318C208.291 56.7352 208.394 56.8895 208.394 57.0955V61.9398C208.394 62.1457 208.292 62.3005 208.137 62.4035L203.963 64.8254C203.886 64.8758 203.797 64.9027 203.705 64.9027C203.613 64.9027 203.524 64.8758 203.447 64.8254L199.274 62.4035C199.119 62.3005 199.016 62.1457 199.016 61.9398V57.0959C199.016 56.8895 199.118 56.7348 199.274 56.6322L203.447 54.2099Z" fill="#539E43"/>
<g id="Group_2">
<path id="Vector_4" d="M85.5971 32.2584C85.1967 32.0305 84.7439 31.9106 84.2831 31.9106C83.8224 31.9106 83.3696 32.0305 82.9692 32.2584L61.275 44.7795C60.4501 45.2432 59.9865 46.1193 59.9865 47.0467V72.1424C59.9865 73.0698 60.5019 73.9459 61.275 74.4096L82.9692 86.9316C83.3696 87.1595 83.8224 87.2793 84.2831 87.2793C84.7439 87.2793 85.1967 87.1595 85.5971 86.9316L107.292 74.4096C108.116 73.9459 108.58 73.0698 108.58 72.1424V47.0472C108.58 46.1198 108.064 45.2437 107.292 44.78L85.5971 32.2584Z" fill="url(#paint0_linear_0_1)"/>
<g id="Mask group">
<mask id="mask0_0_1" style="mask-type:luminance" maskUnits="userSpaceOnUse" x="59" y="31" width="50" height="57">
<g id="Group_3">
<path id="Vector_5" d="M85.5971 32.2584C85.1967 32.0305 84.7439 31.9106 84.2831 31.9106C83.8224 31.9106 83.3696 32.0305 82.9692 32.2584L61.275 44.7795C60.4501 45.2432 59.9865 46.1193 59.9865 47.0467V72.1424C59.9865 73.0698 60.5019 73.9459 61.275 74.4096L82.9692 86.9316C83.3696 87.1595 83.8224 87.2793 84.2831 87.2793C84.7439 87.2793 85.1967 87.1595 85.5971 86.9316L107.292 74.4096C108.116 73.9459 108.58 73.0698 108.58 72.1424V47.0472C108.58 46.1198 108.064 45.2437 107.292 44.78L85.5971 32.2584Z" fill="white"/>
</g>
</mask>
<g mask="url(#mask0_0_1)">
<g id="Group_4">
<path id="Vector_6" d="M107.343 44.78L85.5459 32.2584C85.3317 32.1503 85.1072 32.0639 84.8757 32.0007L60.4502 73.8438C60.6525 74.0908 60.8969 74.3002 61.172 74.4622L82.9692 86.9842C83.5876 87.3449 84.309 87.4479 84.9787 87.2414L107.91 45.2958C107.755 45.0898 107.549 44.9342 107.343 44.78Z" fill="url(#paint1_linear_0_1)"/>
</g>
</g>
</g>
<g id="Mask group_2">
<mask id="mask1_0_1" style="mask-type:luminance" maskUnits="userSpaceOnUse" x="59" y="31" width="50" height="57">
<g id="Group_5">
<path id="Vector_7" d="M85.5971 32.2584C85.1967 32.0305 84.7439 31.9106 84.2831 31.9106C83.8224 31.9106 83.3696 32.0305 82.9692 32.2584L61.275 44.7795C60.4501 45.2432 59.9865 46.1193 59.9865 47.0467V72.1424C59.9865 73.0698 60.5019 73.9459 61.275 74.4096L82.9692 86.9316C83.3696 87.1595 83.8224 87.2793 84.2831 87.2793C84.7439 87.2793 85.1967 87.1595 85.5971 86.9316L107.292 74.4096C108.116 73.9459 108.58 73.0698 108.58 72.1424V47.0472C108.58 46.1198 108.064 45.2437 107.292 44.78L85.5971 32.2584Z" fill="white"/>
</g>
</mask>
<g mask="url(#mask1_0_1)">
<g id="Group_6">
<path id="Vector_8" fill-rule="evenodd" clip-rule="evenodd" d="M107.395 74.41C108.013 74.0493 108.477 73.4309 108.683 72.7612L84.7722 31.949C84.1538 31.846 83.4837 31.8973 82.9175 32.258L61.2745 44.7287L84.6175 87.2927C84.957 87.2371 85.2867 87.1331 85.5966 86.9837L107.395 74.41Z" fill="url(#paint2_linear_0_1)"/>
<path id="Vector_9" fill-rule="evenodd" clip-rule="evenodd" d="M107.395 74.41L85.6489 86.932C85.3419 87.0885 85.011 87.1929 84.6698 87.2409L85.0822 88.0141L109.198 74.0497V73.7403L108.58 72.7095C108.477 73.4309 108.013 74.0493 107.395 74.41Z" fill="url(#paint3_linear_0_1)"/>
<path id="Vector_10" fill-rule="evenodd" clip-rule="evenodd" d="M107.395 74.41L85.6489 86.932C85.3419 87.0885 85.011 87.1929 84.6698 87.2409L85.0822 88.0141L109.198 74.0497V73.7403L108.58 72.7095C108.477 73.4309 108.013 74.0493 107.395 74.41Z" fill="url(#paint4_linear_0_1)"/>
</g>
</g>
</g>
</g>
</g>
</g>
</g>
<defs>
<linearGradient id="paint0_linear_0_1" x1="3373.5" y1="1000.14" x2="995.607" y2="4736.52" gradientUnits="userSpaceOnUse">
<stop stop-color="#41873F"/>
<stop offset="0.3288" stop-color="#418B3D"/>
<stop offset="0.6352" stop-color="#419637"/>
<stop offset="0.9319" stop-color="#3FA92D"/>
<stop offset="1" stop-color="#3FAE2A"/>
</linearGradient>
<linearGradient id="paint1_linear_0_1" x1="2114.38" y1="3085.38" x2="8069.7" y2="-150.168" gradientUnits="userSpaceOnUse">
<stop offset="0.1376" stop-color="#41873F"/>
<stop offset="0.4032" stop-color="#54A044"/>
<stop offset="0.7136" stop-color="#66B848"/>
<stop offset="0.9081" stop-color="#6CC04A"/>
</linearGradient>
<linearGradient id="paint2_linear_0_1" x1="-146.802" y1="2801.27" x2="4873.21" y2="2801.27" gradientUnits="userSpaceOnUse">
<stop offset="0.09192" stop-color="#6CC04A"/>
<stop offset="0.2864" stop-color="#66B848"/>
<stop offset="0.5968" stop-color="#54A044"/>
<stop offset="0.8624" stop-color="#41873F"/>
</linearGradient>
<linearGradient id="paint3_linear_0_1" x1="-2462.89" y1="842.147" x2="2557.07" y2="842.147" gradientUnits="userSpaceOnUse">
<stop offset="0.09192" stop-color="#6CC04A"/>
<stop offset="0.2864" stop-color="#66B848"/>
<stop offset="0.5968" stop-color="#54A044"/>
<stop offset="0.8624" stop-color="#41873F"/>
</linearGradient>
<linearGradient id="paint4_linear_0_1" x1="3288.42" y1="-3157.61" x2="2016.66" y2="3506.33" gradientUnits="userSpaceOnUse">
<stop stop-color="#41873F"/>
<stop offset="0.3288" stop-color="#418B3D"/>
<stop offset="0.6352" stop-color="#419637"/>
<stop offset="0.9319" stop-color="#3FA92D"/>
<stop offset="1" stop-color="#3FAE2A"/>
</linearGradient>
<clipPath id="clip0_0_1">
<rect width="228.29" height="140" fill="white"/>
</clipPath>
</defs>
</svg>
