<svg width="94" height="140" viewBox="0 0 94 140" fill="none" xmlns="http://www.w3.org/2000/svg">
<g clip-path="url(#clip0_53_125)">
<path d="M23.3367 140C36.2167 140 46.67 129.547 46.67 116.667V93.3333H23.3367C10.4567 93.3333 0.00335693 103.787 0.00335693 116.667C0.00335693 129.547 10.4567 140 23.3367 140Z" fill="#0ACF83"/>
<path d="M0.00335693 70.0001C0.00335693 57.1201 10.4567 46.6667 23.3367 46.6667H46.67V93.3334H23.3367C10.4567 93.3334 0.00335693 82.8801 0.00335693 70.0001Z" fill="#A259FF"/>
<path d="M0.00335693 23.3333C0.00335693 10.4533 10.4567 0 23.3367 0H46.67V46.6667H23.3367C10.4567 46.6667 0.00335693 36.2133 0.00335693 23.3333Z" fill="#F24E1E"/>
<path d="M46.67 0H70.0033C82.8833 0 93.3367 10.4533 93.3367 23.3333C93.3367 36.2133 82.8833 46.6667 70.0033 46.6667H46.67V0Z" fill="#FF7262"/>
<path d="M93.3367 70.0001C93.3367 82.8801 82.8833 93.3334 70.0033 93.3334C57.1233 93.3334 46.67 82.8801 46.67 70.0001C46.67 57.1201 57.1233 46.6667 70.0033 46.6667C82.8833 46.6667 93.3367 57.1201 93.3367 70.0001Z" fill="#1ABCFE"/>
</g>
<defs>
<clipPath id="clip0_53_125">
<rect width="93.34" height="140" fill="white"/>
</clipPath>
</defs>
</svg>
