<svg width="106" height="106" viewBox="0 0 106 106" fill="none" xmlns="http://www.w3.org/2000/svg">
<g clip-path="url(#clip0_51_85)">
<path d="M81.1562 0H24.8438C11.1229 0 0 11.1229 0 24.8438V81.1562C0 94.8771 11.1229 106 24.8438 106H81.1562C94.8771 106 106 94.8771 106 81.1562V24.8438C106 11.1229 94.8771 0 81.1562 0Z" fill="#F4F2ED"/>
<path fill-rule="evenodd" clip-rule="evenodd" d="M79.5128 65.2856C79.8408 65.0973 80.1135 64.8259 80.3036 64.4989C80.4936 64.1719 80.5943 63.8006 80.5956 63.4224L80.6345 50.9421C80.6356 50.5638 80.7363 50.1925 80.9264 49.8655C81.1163 49.5384 81.3889 49.2671 81.7169 49.0788L88.4822 45.1928C88.9776 44.9086 89.5655 44.8324 90.117 44.981C90.6685 45.1295 91.1386 45.4907 91.4242 45.9854C91.6133 46.3129 91.7129 46.6845 91.7128 47.0628V69.7517C91.7131 70.1312 91.6131 70.504 91.4229 70.8323C91.2328 71.1607 90.9592 71.433 90.63 71.6216L65.0985 86.2865C64.7724 86.4736 64.403 86.5722 64.027 86.5726C63.651 86.573 63.2814 86.475 62.9549 86.2885L42.918 74.8285C42.588 74.6399 42.3136 74.3675 42.1227 74.0387C41.9319 73.71 41.8313 73.3367 41.8311 72.9566V61.516C41.8311 61.5032 41.8464 61.4945 41.8592 61.5007C41.8618 61.5024 41.8648 61.5034 41.8679 61.5034C41.871 61.5035 41.874 61.5028 41.8767 61.5012C41.8794 61.4997 41.8816 61.4974 41.883 61.4947C41.8845 61.4919 41.8851 61.4889 41.8849 61.4858V61.473C41.8849 61.4643 41.8895 61.4556 41.8982 61.4514L58.4002 51.971C58.4151 51.9624 58.4085 51.9387 58.3915 51.9387C58.3869 51.9386 58.3826 51.9368 58.3793 51.9335C58.3761 51.9303 58.3742 51.9259 58.3741 51.9214L58.4064 40.7048C58.4083 40.3255 58.3099 39.9524 58.1212 39.6233C57.9325 39.2942 57.6602 39.0208 57.3319 38.8308C57.0038 38.6406 56.6314 38.5402 56.2521 38.5399C55.8729 38.5395 55.5002 38.6391 55.1718 38.8287L42.9072 45.8959C42.5799 46.0843 42.2088 46.1835 41.8311 46.1835C41.4534 46.1835 41.0823 46.0843 40.7549 45.8959L28.4515 38.8113C28.1237 38.6224 27.7521 38.5231 27.3738 38.5233C26.9955 38.5235 26.624 38.6232 26.2964 38.8124C25.9689 39.0016 25.6969 39.2737 25.5078 39.6013C25.3186 39.9289 25.219 40.3005 25.2189 40.6787V60.9508C25.2193 61.3287 25.1204 61.7 24.932 62.0276C24.7437 62.3552 24.4726 62.6275 24.1459 62.8173C23.8191 63.0071 23.4483 63.1077 23.0704 63.1091C22.6926 63.1104 22.321 63.0124 21.9929 62.8249L15.165 58.9215C14.8344 58.7325 14.5597 58.4594 14.3688 58.1299C14.1779 57.8004 14.0776 57.4262 14.0781 57.0454L14.1386 21.6128C14.1394 21.2351 14.2394 20.8642 14.4286 20.5372C14.6178 20.2103 14.8896 19.9388 15.2167 19.7499C15.5438 19.561 15.9148 19.4614 16.2926 19.4609C16.6703 19.4605 17.0415 19.5593 17.3691 19.7475L40.757 33.1809C41.0839 33.3685 41.4542 33.4673 41.8311 33.4673C42.208 33.4673 42.5783 33.3685 42.9052 33.1809L66.2869 19.7475C66.7824 19.4626 67.3708 19.3863 67.9227 19.5352C68.4745 19.6841 68.9446 20.0462 69.2296 20.5416C69.4184 20.8692 69.5174 21.241 69.5174 21.6194V57.0603C69.5174 57.4395 69.4176 57.8119 69.2279 58.1402C69.0381 58.4685 68.7652 58.741 68.4367 58.9302L56.1916 65.9821C55.863 66.1721 55.5902 66.4453 55.4007 66.7742C55.2112 67.1031 55.1117 67.4761 55.1121 67.8557C55.1127 68.2354 55.2136 68.6082 55.4047 68.9363C55.5958 69.2644 55.8703 69.5362 56.2003 69.724L62.9549 73.569C63.2812 73.7552 63.6505 73.8527 64.0262 73.852C64.4019 73.8513 64.7709 73.7523 65.0964 73.5648L79.5128 65.2856ZM80.9298 33.4935C80.9302 33.8749 81.0317 34.2493 81.2239 34.5786C81.4162 34.908 81.6923 35.1805 82.0241 35.3684C82.3561 35.5562 82.7319 35.6527 83.1132 35.6479C83.4946 35.6432 83.8679 35.5375 84.1951 35.3415L90.6648 31.4596C90.9841 31.2682 91.2484 30.9974 91.432 30.6736C91.6157 30.3498 91.7124 29.9839 91.7128 29.6117V21.701C91.712 21.4159 91.6547 21.1338 91.5443 20.871C91.4339 20.6081 91.2725 20.3697 91.0695 20.1696C90.8664 19.9694 90.6258 19.8115 90.3614 19.7049C90.097 19.5982 89.8141 19.545 89.529 19.5483C89.1477 19.5529 88.7745 19.6586 88.4475 19.8547L81.9777 23.7365C81.6581 23.9277 81.3935 24.1985 81.2099 24.5224C81.0262 24.8464 80.9297 25.2125 80.9298 25.5849V33.4952V33.4935Z" fill="#007FFF"/>
</g>
<defs>
<clipPath id="clip0_51_85">
<rect width="106" height="106" fill="white"/>
</clipPath>
</defs>
</svg>
