<svg width="140" height="140" viewBox="0 0 140 140" fill="none" xmlns="http://www.w3.org/2000/svg">
<g clip-path="url(#clip0_52_80)">
<path d="M107.188 0H32.8125C14.6907 0 0 14.6907 0 32.8125V107.188C0 125.309 14.6907 140 32.8125 140H107.188C125.309 140 140 125.309 140 107.188V32.8125C140 14.6907 125.309 0 107.188 0Z" fill="#023430"/>
<path d="M93.6103 58.8388C87.8479 33.4195 75.8385 26.6525 72.7749 21.869C71.5115 19.7617 70.3924 17.5712 69.4253 15.3125C69.2634 17.5711 68.9659 18.993 67.0464 20.7058C63.1925 24.1418 46.8246 37.4801 45.447 66.3622C44.1635 93.2914 65.2439 109.896 68.0286 111.613C70.1701 112.667 72.7782 111.635 74.0507 110.668C84.2122 103.694 98.0963 85.1014 93.6212 58.8388" fill="#10AA50"/>
<path d="M70.2981 97.2732C69.7676 103.939 69.3875 107.811 68.04 111.62C68.04 111.62 68.9243 117.966 69.5456 124.687H71.7435C72.2677 119.954 73.0683 115.255 74.141 110.615C71.2956 109.215 70.4075 103.122 70.2981 97.2732Z" fill="#B8C4C2"/>
<path d="M74.1371 110.619C71.2616 109.291 70.4298 103.069 70.3019 97.2732C71.0128 87.7122 71.2201 78.1204 70.9231 68.5376C70.7722 63.5097 70.9942 21.9669 69.6844 15.8845C70.5805 17.9445 71.613 19.9425 72.7748 21.8651C75.8384 26.6525 87.8516 33.4195 93.6102 58.8388C98.0962 85.0566 84.2877 103.6 74.1371 110.619Z" fill="#12924F"/>
</g>
<defs>
<clipPath id="clip0_52_80">
<rect width="140" height="140" fill="white"/>
</clipPath>
</defs>
</svg>
