<svg width="140" height="140" viewBox="0 0 140 140" fill="none" xmlns="http://www.w3.org/2000/svg">
<g clip-path="url(#clip0_52_44)">
<path d="M107.188 0H32.8125C14.6907 0 0 14.6907 0 32.8125V107.188C0 125.309 14.6907 140 32.8125 140H107.188C125.309 140 140 125.309 140 107.188V32.8125C140 14.6907 125.309 0 107.188 0Z" fill="#242938"/>
<path d="M70.0006 80.3639C75.6356 80.3639 80.2031 75.7958 80.2031 70.1614C80.2031 64.5269 75.6356 59.9589 70.0006 59.9589C64.3661 59.9589 59.7981 64.5269 59.7981 70.1614C59.7981 75.7958 64.3661 80.3639 70.0006 80.3639Z" fill="#00D8FF"/>
<path d="M70.0011 49.4172C83.6992 49.4172 96.4245 51.3827 106.019 54.6864C117.58 58.666 124.688 64.6986 124.688 70.1613C124.688 75.8537 117.155 82.2625 104.74 86.3756C95.3548 89.4851 83.0041 91.1083 70.0011 91.1083C56.6694 91.1083 44.0448 89.5847 34.5532 86.3411C22.5449 82.2368 15.3125 75.7454 15.3125 70.1613C15.3125 64.7429 22.0992 58.7568 33.4972 54.7832C43.1277 51.4254 56.1668 49.4172 69.9989 49.4172H70.0011Z" stroke="#00D8FF" stroke-width="4.8732"/>
<path d="M51.9428 59.8489C58.7863 47.9828 66.8456 37.9411 74.5008 31.2801C83.7233 23.2537 92.5006 20.1102 97.2322 22.8386C102.163 25.6823 103.952 35.4101 101.314 48.2191C99.3202 57.9026 94.5547 69.4121 88.0584 80.6766C81.398 92.2255 73.7718 102.401 66.2211 109C56.6667 117.352 47.4294 120.375 42.5923 117.585C37.8985 114.88 36.1036 106.01 38.3556 94.1505C40.2582 84.1301 45.033 71.8315 51.9406 59.8489H51.9428Z" stroke="#00D8FF" stroke-width="4.8732"/>
<path d="M51.9597 80.7067C45.097 68.8537 40.4245 56.8542 38.4743 46.8956C36.1266 34.8966 37.7863 25.7228 42.5141 22.9862C47.4409 20.1337 56.7613 23.4423 66.5405 32.1256C73.9342 38.6903 81.5265 48.5652 88.0414 59.8188C94.7209 71.3567 99.727 83.0462 101.674 92.8834C104.139 105.332 102.144 114.844 97.3115 117.642C92.6226 120.356 84.0416 117.482 74.8918 109.608C67.1612 102.956 58.8902 92.6778 51.9597 80.7067Z" stroke="#00D8FF" stroke-width="4.8732"/>
</g>
<defs>
<clipPath id="clip0_52_44">
<rect width="140" height="140" fill="white"/>
</clipPath>
</defs>
</svg>
