<svg width="36" height="26" viewBox="0 0 36 26" fill="none" xmlns="http://www.w3.org/2000/svg">
<path d="M18 0C13.1999 0 10.2009 2.88791 9 8.6661C10.7994 5.77785 12.9001 4.6948 15.2994 5.41695C16.6694 5.82796 17.6484 7.02375 18.7327 8.34887C20.4972 10.5045 22.5397 13 27 13C31.7998 13 34.7991 10.1117 36 4.3322C34.2 7.22192 32.1001 8.30554 29.7003 7.58305C28.3306 7.1717 27.3527 5.97625 26.2671 4.65113C24.5036 2.49552 22.4617 0 18 0ZM9 13C4.20019 13 1.20094 15.8882 0 21.6678C1.79981 18.7781 3.89963 17.6945 6.29944 18.4169C7.66941 18.8283 8.64844 20.0238 9.73266 21.3489C11.4972 23.5045 13.5397 26 18 26C22.7998 26 25.7991 23.1121 27 17.3339C25.2 20.2223 23.1001 21.3053 20.7003 20.5831C19.3306 20.172 18.3527 18.9762 17.2671 17.6511C15.5036 15.4955 13.4618 13 9 13Z" fill="#38BDF8"/>
</svg>
