<svg width="66" height="66" viewBox="0 0 66 66" fill="none" xmlns="http://www.w3.org/2000/svg">
<g clip-path="url(#clip0_686_12594)">
<path d="M50.5312 0H15.4688C6.9256 0 0 6.9256 0 15.4688V50.5312C0 59.0744 6.9256 66 15.4688 66H50.5312C59.0744 66 66 59.0744 66 50.5312V15.4688C66 6.9256 59.0744 0 50.5312 0Z" fill="#007ACC"/>
<path d="M14.5951 33.2185L14.5742 35.9214H23.1645V60.3309H29.2409V35.9214H37.8312V33.2709C37.8312 31.8042 37.8 30.5785 37.758 30.5471C37.7266 30.5053 32.4989 30.4842 26.1608 30.4947L14.6266 30.5262L14.5951 33.2185ZM53.2556 30.4494C54.9317 30.8686 56.2099 31.6124 57.3832 32.8274C57.9909 33.4771 58.8917 34.661 58.9651 34.9438C58.986 35.0276 56.1155 36.9553 54.3766 38.0342C54.3137 38.0762 54.0621 37.8037 53.7793 37.3848C52.9308 36.1486 52.0403 35.6141 50.6783 35.52C48.6774 35.3836 47.3889 36.4314 47.3994 38.1809C47.3994 38.6942 47.4726 38.9979 47.6822 39.4171C48.1221 40.3285 48.9393 40.8732 51.5061 41.9836C56.2308 44.0162 58.2526 45.3571 59.5099 47.2636C60.9137 49.3903 61.228 52.7847 60.2746 55.3094C59.2271 58.0541 56.6289 59.9189 52.9726 60.5371C51.8413 60.7361 49.1592 60.7047 47.9442 60.4848C45.2936 60.0132 42.7794 58.7038 41.2289 56.9857C40.6213 56.3152 39.4374 54.5657 39.5109 54.4398C39.5421 54.3981 39.8146 54.2305 40.1183 54.0524C40.4117 53.8848 41.5223 53.2457 42.5698 52.638L44.466 51.5379L44.8641 52.1247C45.4194 52.9732 46.6345 54.1361 47.368 54.5236C49.4735 55.6343 52.3652 55.477 53.7898 54.199C54.3975 53.6437 54.6489 53.0675 54.6489 52.219C54.6489 51.4541 54.5545 51.119 54.1564 50.5428C53.6431 49.8095 52.5956 49.1913 49.6202 47.9028C46.2155 46.4361 44.7489 45.5247 43.408 44.0789C42.6327 43.241 41.8992 41.8998 41.5955 40.7789C41.3442 39.8466 41.2813 37.5103 41.4803 36.5675C42.1821 33.2781 44.6651 30.9838 48.2479 30.3027C49.4109 30.0828 52.1135 30.1665 53.2556 30.4494Z" fill="white"/>
</g>
<defs>
<clipPath id="clip0_686_12594">
<rect width="66" height="66" fill="white"/>
</clipPath>
</defs>
</svg>
