<svg width="107" height="106" viewBox="0 0 107 106" fill="none" xmlns="http://www.w3.org/2000/svg">
<g clip-path="url(#clip0_84_23)">
<mask id="mask0_84_23" style="mask-type:luminance" maskUnits="userSpaceOnUse" x="0" y="0" width="107" height="106">
<path d="M75.4663 105.418C76.3131 105.748 77.2187 105.9 78.127 105.866C79.0352 105.831 79.9265 105.609 80.7454 105.215L102.655 94.6726C103.784 94.1293 104.736 93.2785 105.402 92.218C106.068 91.1576 106.422 89.9306 106.422 88.6782V17.1924C106.422 15.9401 106.068 14.7132 105.402 13.6528C104.736 12.5924 103.784 11.7416 102.655 11.1984L80.7458 0.655586C79.5078 0.059859 78.1152 -0.136289 76.7608 0.0942931C75.4064 0.324875 74.1572 0.970781 73.186 1.94261L31.2422 40.209L12.9718 26.3406C12.1476 25.715 11.1305 25.3976 10.0968 25.4436C9.06319 25.4896 8.07823 25.8959 7.31288 26.5922L1.45325 31.9227C-0.478956 33.68 -0.481043 36.7198 1.44824 38.4801L17.2927 52.9353L1.44824 67.3901C-0.481043 69.1508 -0.478956 72.1901 1.45325 73.9479L7.31288 79.278C8.07818 79.9743 9.06311 80.3807 10.0968 80.4268C11.1304 80.4728 12.1476 80.1556 12.9718 79.53L31.2422 65.6611L73.186 103.928C73.8345 104.577 74.6111 105.085 75.4663 105.418M79.8332 28.7769L48.0073 52.9353L79.8332 77.0933V28.7769Z" fill="white"/>
</mask>
<g mask="url(#mask0_84_23)">
<path d="M102.72 11.2147L80.7934 0.657248C79.555 0.0610403 78.162 -0.135525 76.807 0.0947533C75.452 0.325032 74.2021 0.970767 73.2302 1.9426L1.44902 67.3901C-0.481512 69.1508 -0.479008 72.1901 1.45403 73.9479L7.31742 79.278C8.0834 79.9744 9.06895 80.3809 10.1032 80.427C11.1375 80.473 12.1552 80.1557 12.9801 79.53L99.421 13.9536C102.321 11.7539 106.486 13.8221 106.486 17.462V17.2074C106.486 15.9553 106.133 14.7287 105.467 13.6686C104.8 12.6084 103.848 11.7578 102.72 11.2147Z" fill="#0065A9"/>
</g>
<mask id="mask1_84_23" style="mask-type:luminance" maskUnits="userSpaceOnUse" x="0" y="0" width="107" height="106">
<path d="M75.4663 105.418C76.3131 105.748 77.2187 105.9 78.127 105.866C79.0352 105.831 79.9265 105.609 80.7454 105.215L102.655 94.6726C103.784 94.1293 104.736 93.2785 105.402 92.218C106.068 91.1576 106.422 89.9306 106.422 88.6782V17.1924C106.422 15.9401 106.068 14.7132 105.402 13.6528C104.736 12.5924 103.784 11.7416 102.655 11.1984L80.7458 0.655586C79.5078 0.059859 78.1152 -0.136289 76.7608 0.0942931C75.4064 0.324875 74.1572 0.970781 73.186 1.94261L31.2422 40.209L12.9718 26.3406C12.1476 25.715 11.1305 25.3976 10.0968 25.4436C9.06319 25.4896 8.07823 25.8959 7.31288 26.5922L1.45325 31.9227C-0.478956 33.68 -0.481043 36.7198 1.44824 38.4801L17.2927 52.9353L1.44824 67.3901C-0.481043 69.1508 -0.478956 72.1901 1.45325 73.9479L7.31288 79.278C8.07818 79.9743 9.06311 80.3807 10.0968 80.4268C11.1304 80.4728 12.1476 80.1556 12.9718 79.53L31.2422 65.6611L73.186 103.928C73.8345 104.577 74.6111 105.085 75.4663 105.418M79.8332 28.7769L48.0073 52.9353L79.8332 77.0933V28.7769Z" fill="white"/>
</mask>
<g mask="url(#mask1_84_23)">
<path d="M102.72 94.6555L80.7934 105.213C79.555 105.809 78.162 106.005 76.807 105.775C75.4521 105.545 74.2022 104.899 73.2302 103.928L1.44902 38.4801C-0.481512 36.7198 -0.479008 33.68 1.45403 31.9227L7.31742 26.5922C8.08345 25.8958 9.06903 25.4894 10.1033 25.4434C11.1375 25.3974 12.1553 25.7148 12.9801 26.3405L99.421 91.9166C102.321 94.1163 106.486 92.048 106.486 88.4077V88.6627C106.486 89.9148 106.133 91.1414 105.467 92.2016C104.8 93.2617 103.848 94.1123 102.72 94.6555Z" fill="#007ACC"/>
</g>
<mask id="mask2_84_23" style="mask-type:luminance" maskUnits="userSpaceOnUse" x="0" y="0" width="107" height="106">
<path d="M75.4663 105.418C76.3131 105.748 77.2187 105.9 78.127 105.866C79.0352 105.831 79.9265 105.609 80.7454 105.215L102.655 94.6726C103.784 94.1293 104.736 93.2785 105.402 92.218C106.068 91.1576 106.422 89.9306 106.422 88.6782V17.1924C106.422 15.9401 106.068 14.7132 105.402 13.6528C104.736 12.5924 103.784 11.7416 102.655 11.1984L80.7458 0.655586C79.5078 0.059859 78.1152 -0.136289 76.7608 0.0942931C75.4064 0.324875 74.1572 0.970781 73.186 1.94261L31.2422 40.209L12.9718 26.3406C12.1476 25.715 11.1305 25.3976 10.0968 25.4436C9.06319 25.4896 8.07823 25.8959 7.31288 26.5922L1.45325 31.9227C-0.478956 33.68 -0.481043 36.7198 1.44824 38.4801L17.2927 52.9353L1.44824 67.3901C-0.481043 69.1508 -0.478956 72.1901 1.45325 73.9479L7.31288 79.278C8.07818 79.9743 9.06311 80.3807 10.0968 80.4268C11.1304 80.4728 12.1476 80.1556 12.9718 79.53L31.2422 65.6611L73.186 103.928C73.8345 104.577 74.6111 105.085 75.4663 105.418M79.8332 28.7769L48.0073 52.9353L79.8332 77.0933V28.7769Z" fill="white"/>
</mask>
<g mask="url(#mask2_84_23)">
<path d="M80.7246 105.221C79.4859 105.817 78.0928 106.013 76.7377 105.783C75.3826 105.552 74.1327 104.907 73.1606 103.935C75.6149 106.389 79.8119 104.65 79.8119 101.179V4.70448C79.8119 1.23319 75.6149 -0.504964 73.1606 1.94931C74.1326 0.977399 75.3826 0.331499 76.7376 0.100933C78.0927 -0.129633 79.4859 0.0665279 80.7246 0.662288L102.648 11.2051C103.777 11.748 104.729 12.5986 105.396 13.659C106.063 14.7194 106.416 15.9465 106.416 17.1991V88.6853C106.416 91.2414 104.951 93.5717 102.648 94.6793L80.7246 105.221Z" fill="#1F9CF0"/>
</g>
<mask id="mask3_84_23" style="mask-type:luminance" maskUnits="userSpaceOnUse" x="0" y="0" width="107" height="106">
<path d="M75.4663 105.418C76.3131 105.748 77.2187 105.9 78.127 105.866C79.0352 105.831 79.9265 105.609 80.7454 105.215L102.655 94.6726C103.784 94.1293 104.736 93.2785 105.402 92.218C106.068 91.1576 106.422 89.9306 106.422 88.6782V17.1924C106.422 15.9401 106.068 14.7132 105.402 13.6528C104.736 12.5924 103.784 11.7416 102.655 11.1984L80.7458 0.655586C79.5078 0.059859 78.1152 -0.136289 76.7608 0.0942931C75.4064 0.324875 74.1572 0.970781 73.186 1.94261L31.2422 40.209L12.9718 26.3406C12.1476 25.715 11.1305 25.3976 10.0968 25.4436C9.06319 25.4896 8.07823 25.8959 7.31288 26.5922L1.45325 31.9227C-0.478956 33.68 -0.481043 36.7198 1.44824 38.4801L17.2927 52.9353L1.44824 67.3901C-0.481043 69.1508 -0.478956 72.1901 1.45325 73.9479L7.31288 79.278C8.07818 79.9743 9.06311 80.3807 10.0968 80.4268C11.1304 80.4728 12.1476 80.1556 12.9718 79.53L31.2422 65.6611L73.186 103.928C73.8345 104.577 74.6111 105.085 75.4663 105.418M79.8332 28.7769L48.0073 52.9353L79.8332 77.0933V28.7769Z" fill="white"/>
</mask>
<g mask="url(#mask3_84_23)">
<path d="M75.4663 105.418C76.3131 105.748 77.2187 105.9 78.1269 105.865C79.0351 105.831 79.9265 105.609 80.7454 105.215L102.655 94.6721C103.783 94.129 104.736 93.2783 105.402 92.2179C106.068 91.1575 106.422 89.9305 106.422 88.6781V17.1924C106.422 15.9401 106.068 14.7131 105.402 13.6527C104.736 12.5924 103.784 11.7416 102.655 11.1984L80.745 0.655145C79.507 0.059514 78.1145 -0.136581 76.7602 0.0939981C75.4059 0.324578 74.1567 0.970429 73.1856 1.94217L31.2422 40.209L12.9718 26.3405C12.1476 25.7149 11.1305 25.3976 10.0968 25.4436C9.06319 25.4895 8.07823 25.8959 7.31288 26.5922L1.45325 31.9226C-0.478956 33.68 -0.481043 36.7198 1.44824 38.48L17.2927 52.9353L1.44824 67.3901C-0.481043 69.1508 -0.478956 72.1901 1.45325 73.9479L7.31288 79.2779C8.07818 79.9743 9.06311 80.3807 10.0968 80.4268C11.1304 80.4728 12.1476 80.1555 12.9718 79.53L31.2422 65.6611L73.1856 103.928C73.8343 104.577 74.6109 105.085 75.4663 105.418ZM79.8332 28.7764L48.0073 52.9353L79.8332 77.0933V28.7764Z" fill="url(#paint0_linear_84_23)" fill-opacity="0.25"/>
</g>
</g>
<defs>
<linearGradient id="paint0_linear_84_23" x1="5320.95" y1="0" x2="5320.95" y2="10587" gradientUnits="userSpaceOnUse">
<stop stop-color="white"/>
<stop offset="1" stop-color="white" stop-opacity="0"/>
</linearGradient>
<clipPath id="clip0_84_23">
<rect width="106.84" height="106" fill="white"/>
</clipPath>
</defs>
</svg>
