<svg width="142" height="140" viewBox="0 0 142 140" fill="none" xmlns="http://www.w3.org/2000/svg">
<mask id="mask0_53_158" style="mask-type:luminance" maskUnits="userSpaceOnUse" x="0" y="0" width="141" height="140">
<path d="M99.6728 139.231C100.791 139.667 101.987 139.869 103.187 139.822C104.386 139.776 105.564 139.484 106.645 138.963L135.583 125.039C137.073 124.322 138.331 123.198 139.211 121.797C140.091 120.397 140.557 118.776 140.557 117.122V22.7071C140.557 21.053 140.091 19.4325 139.211 18.032C138.331 16.6315 137.073 15.5079 135.583 14.7904L106.646 0.865953C105.011 0.0791442 103.171 -0.179918 101.383 0.124623C99.5937 0.429165 97.9438 1.28225 96.6612 2.5658L41.2636 53.1063L17.1329 34.7895C16.0444 33.9632 14.701 33.5441 13.3358 33.6048C11.9706 33.6655 10.6697 34.2022 9.65888 35.1219L1.91974 42.1621C-0.632224 44.4831 -0.63498 48.4979 1.91313 50.8228L22.8398 69.9146L1.91313 89.0059C-0.63498 91.3313 -0.632224 95.3456 1.91974 97.6671L9.65888 104.707C10.6697 105.627 11.9705 106.163 13.3357 106.224C14.7009 106.285 16.0443 105.866 17.1329 105.04L41.2636 86.7223L96.6612 137.263C97.5176 138.121 98.5433 138.791 99.6728 139.231M105.44 38.0073L63.4062 69.9146L105.44 101.821V38.0073Z" fill="white"/>
</mask>
<g mask="url(#mask0_53_158)">
<path d="M135.669 14.8119L106.709 0.868158C105.073 0.0807137 103.233 -0.178901 101.444 0.12524C99.6541 0.429381 98.0032 1.28224 96.7196 2.5658L1.91429 89.0059C-0.635478 91.3313 -0.632171 95.3456 1.9209 97.6671L9.66499 104.707C10.6767 105.627 11.9783 106.164 13.3443 106.224C14.7103 106.285 16.0546 105.866 17.144 105.04L131.311 18.4293C135.141 15.5241 140.643 18.2557 140.643 23.0631V22.7269C140.643 21.0732 140.176 19.4531 139.296 18.0529C138.416 16.6527 137.159 15.5293 135.669 14.8119Z" fill="#0065A9"/>
</g>
<mask id="mask1_53_158" style="mask-type:luminance" maskUnits="userSpaceOnUse" x="0" y="0" width="141" height="140">
<path d="M99.6728 139.231C100.791 139.667 101.987 139.869 103.187 139.822C104.386 139.776 105.564 139.484 106.645 138.963L135.583 125.039C137.073 124.322 138.331 123.198 139.211 121.797C140.091 120.397 140.557 118.776 140.557 117.122V22.7071C140.557 21.053 140.091 19.4325 139.211 18.032C138.331 16.6315 137.073 15.5079 135.583 14.7904L106.646 0.865953C105.011 0.0791442 103.171 -0.179918 101.383 0.124623C99.5937 0.429165 97.9438 1.28225 96.6612 2.5658L41.2636 53.1063L17.1329 34.7895C16.0444 33.9632 14.701 33.5441 13.3358 33.6048C11.9706 33.6655 10.6697 34.2022 9.65888 35.1219L1.91974 42.1621C-0.632224 44.4831 -0.63498 48.4979 1.91313 50.8228L22.8398 69.9146L1.91313 89.0059C-0.63498 91.3313 -0.632224 95.3456 1.91974 97.6671L9.65888 104.707C10.6697 105.627 11.9705 106.163 13.3357 106.224C14.7009 106.285 16.0443 105.866 17.1329 105.04L41.2636 86.7223L96.6612 137.263C97.5176 138.121 98.5433 138.791 99.6728 139.231M105.44 38.0073L63.4062 69.9146L105.44 101.821V38.0073Z" fill="white"/>
</mask>
<g mask="url(#mask1_53_158)">
<path d="M135.669 125.017L106.709 138.961C105.073 139.748 103.233 140.007 101.444 139.703C99.6541 139.399 98.0033 138.546 96.7196 137.263L1.91429 50.8229C-0.635478 48.498 -0.632171 44.4832 1.9209 42.1622L9.66499 35.1219C10.6767 34.2021 11.9784 33.6654 13.3444 33.6047C14.7104 33.544 16.0546 33.9631 17.144 34.7896L131.311 121.399C135.141 124.305 140.643 121.573 140.643 116.765V117.102C140.643 118.756 140.176 120.376 139.296 121.776C138.416 123.176 137.159 124.299 135.669 125.017Z" fill="#007ACC"/>
</g>
<mask id="mask2_53_158" style="mask-type:luminance" maskUnits="userSpaceOnUse" x="0" y="0" width="141" height="140">
<path d="M99.6728 139.231C100.791 139.667 101.987 139.869 103.187 139.822C104.386 139.776 105.564 139.484 106.645 138.963L135.583 125.039C137.073 124.322 138.331 123.198 139.211 121.797C140.091 120.397 140.557 118.776 140.557 117.122V22.7071C140.557 21.053 140.091 19.4325 139.211 18.032C138.331 16.6315 137.073 15.5079 135.583 14.7904L106.646 0.865953C105.011 0.0791442 103.171 -0.179918 101.383 0.124623C99.5937 0.429165 97.9438 1.28225 96.6612 2.5658L41.2636 53.1063L17.1329 34.7895C16.0444 33.9632 14.701 33.5441 13.3358 33.6048C11.9706 33.6655 10.6697 34.2022 9.65888 35.1219L1.91974 42.1621C-0.632224 44.4831 -0.63498 48.4979 1.91313 50.8228L22.8398 69.9146L1.91313 89.0059C-0.63498 91.3313 -0.632224 95.3456 1.91974 97.6671L9.65888 104.707C10.6697 105.627 11.9705 106.163 13.3357 106.224C14.7009 106.285 16.0443 105.866 17.1329 105.04L41.2636 86.7223L96.6612 137.263C97.5176 138.121 98.5433 138.791 99.6728 139.231M105.44 38.0073L63.4062 69.9146L105.44 101.821V38.0073Z" fill="white"/>
</mask>
<g mask="url(#mask2_53_158)">
<path d="M106.618 138.972C104.982 139.758 103.142 140.018 101.352 139.713C99.5623 139.409 97.9114 138.556 96.6276 137.272C99.8691 140.513 105.412 138.218 105.412 133.633V6.21355C105.412 1.62882 99.8691 -0.666846 96.6276 2.57465C97.9113 1.29099 99.5622 0.437916 101.352 0.133395C103.142 -0.171125 104.982 0.0879546 106.618 0.874807L135.573 14.7993C137.064 15.5163 138.322 16.6397 139.202 18.0403C140.083 19.4408 140.55 21.0616 140.55 22.7159V117.132C140.55 120.508 138.615 123.585 135.573 125.048L106.618 138.972Z" fill="#1F9CF0"/>
</g>
<mask id="mask3_53_158" style="mask-type:luminance" maskUnits="userSpaceOnUse" x="0" y="0" width="141" height="140">
<path d="M99.6728 139.231C100.791 139.667 101.987 139.869 103.187 139.822C104.386 139.776 105.564 139.484 106.645 138.963L135.583 125.039C137.073 124.322 138.331 123.198 139.211 121.797C140.091 120.397 140.557 118.776 140.557 117.122V22.7071C140.557 21.053 140.091 19.4325 139.211 18.032C138.331 16.6315 137.073 15.5079 135.583 14.7904L106.646 0.865953C105.011 0.0791442 103.171 -0.179918 101.383 0.124623C99.5937 0.429165 97.9438 1.28225 96.6612 2.5658L41.2636 53.1063L17.1329 34.7895C16.0444 33.9632 14.701 33.5441 13.3358 33.6048C11.9706 33.6655 10.6697 34.2022 9.65888 35.1219L1.91974 42.1621C-0.632224 44.4831 -0.63498 48.4979 1.91313 50.8228L22.8398 69.9146L1.91313 89.0059C-0.63498 91.3313 -0.632224 95.3456 1.91974 97.6671L9.65888 104.707C10.6697 105.627 11.9705 106.163 13.3357 106.224C14.7009 106.285 16.0443 105.866 17.1329 105.04L41.2636 86.7223L96.6612 137.263C97.5176 138.121 98.5433 138.791 99.6728 139.231M105.44 38.0073L63.4062 69.9146L105.44 101.821V38.0073Z" fill="white"/>
</mask>
<g mask="url(#mask3_53_158)">
<path d="M99.6727 139.231C100.791 139.667 101.987 139.868 103.187 139.822C104.386 139.776 105.563 139.484 106.645 138.963L135.582 125.039C137.073 124.321 138.33 123.198 139.21 121.797C140.09 120.397 140.557 118.776 140.557 117.122V22.7069C140.557 21.0529 140.091 19.4324 139.21 18.0319C138.33 16.6314 137.073 15.5078 135.583 14.7903L106.645 0.865286C105.01 0.0786034 103.17 -0.180391 101.382 0.124148C99.5929 0.428687 97.9431 1.2817 96.6605 2.56513L41.2635 53.1062L17.1328 34.7894C16.0443 33.9631 14.7009 33.544 13.3357 33.6047C11.9705 33.6654 10.6696 34.2021 9.65876 35.1217L1.91962 42.162C-0.632346 44.483 -0.635102 48.4978 1.91301 50.8227L22.8397 69.9145L1.91301 89.0058C-0.635102 91.3312 -0.632346 95.3454 1.91962 97.667L9.65876 104.707C10.6695 105.626 11.9704 106.163 13.3356 106.224C14.7008 106.285 16.0442 105.866 17.1328 105.04L41.2635 86.7222L96.6605 137.263C97.5172 138.121 98.543 138.791 99.6727 139.231ZM105.44 38.0066L63.4061 69.9145L105.44 101.821V38.0066Z" fill="url(#paint0_linear_53_158)" fill-opacity="0.25"/>
</g>
<defs>
<linearGradient id="paint0_linear_53_158" x1="7027.67" y1="0" x2="7027.67" y2="13982.9" gradientUnits="userSpaceOnUse">
<stop stop-color="white"/>
<stop offset="1" stop-color="white" stop-opacity="0"/>
</linearGradient>
</defs>
</svg>
